<?xml version="1.0" encoding="UTF-8"?>
<svg width="1200pt" height="1200pt" version="1.1" viewBox="0 0 1200 1200" xmlns="http://www.w3.org/2000/svg">
 <path d="m181.6 983.9h836.81v101.11h-836.81z"/>
 <path d="m1041.4 570.71c39.938 82.922-11.156 247.64-106.17 221.26-98.203-27.281-59.203-219.74 74.766-237.66-53.297-79.688-34.359-143.39-13.125-248.58-56.109 100.12-110.72 143.26-210.84 137.81 50.812 87.984 47.156 271.64-68.203 260.39-103.97-10.172-80.625-196.26 33.047-266.81-106.78-46.641-150.89-268.74-150.89-322.13 0 53.391-44.109 275.44-150.89 322.13 113.67 70.547 137.02 256.64 33.047 266.81-115.36 11.25-119.02-172.4-68.203-260.39-100.17 5.4375-154.74-37.641-210.84-137.81 21.234 105.19 40.172 168.89-13.125 248.58 133.97 17.906 172.97 210.28 74.766 237.66-95.016 26.438-146.11-138.37-106.17-221.26-71.812 2.5312-110.2-15.188-158.58-77.719l187.45 457.08h825.1l187.45-457.08c-48.281 62.531-86.766 80.203-158.58 77.719zm-441.42 322.74c-12.094-37.031-39.281-67.219-74.859-83.062 35.531-15.844 62.766-45.984 74.859-82.969 12.094 37.031 39.281 67.219 74.859 83.062-35.531 15.844-62.719 45.984-74.859 82.969z"/>
</svg>
